<svg width="24" height="24" viewBox="0 0 24 24" fill="none" xmlns="http://www.w3.org/2000/svg">
<path fill-rule="evenodd" clip-rule="evenodd" d="M19.5191 11.3022C20.1729 10.6347 20.7158 10.0805 21.0883 9.58228C21.481 9.05707 21.7512 8.50925 21.7514 7.85029C21.7516 7.19134 21.4817 6.64337 21.0893 6.11793C20.717 5.61945 20.1745 5.06493 19.5211 4.3971L18.7048 3.56266C18.0434 2.88659 17.4942 2.32524 16.9999 1.93986C16.4795 1.53425 15.9303 1.2502 15.2643 1.25C14.5982 1.2498 14.0488 1.53353 13.5283 1.93884C13.0337 2.32392 12.4842 2.88493 11.8224 3.56061L9.32614 6.11077C9.13216 6.30894 9.03517 6.40802 9.03516 6.53038C9.03514 6.65275 9.1321 6.75186 9.32602 6.95008L16.1211 13.8957C16.3228 14.1018 16.4236 14.2049 16.5498 14.2049C16.6759 14.205 16.7768 14.102 16.9786 13.8959L16.9786 13.8959L19.5191 11.3022ZM14.7385 15.3487L14.7385 15.3487C14.9324 15.5468 15.0293 15.6459 15.0293 15.7682C15.0293 15.8906 14.9324 15.9897 14.7385 16.1878L12.9447 18.0213C12.3891 18.5897 12.008 18.9795 11.5428 19.2464C11.273 19.4013 10.9856 19.5227 10.6867 19.6081C10.171 19.7554 9.52646 19.7551 8.73792 19.7549C7.94939 19.7551 7.3049 19.7554 6.78912 19.6081C6.49029 19.5227 6.20288 19.4013 5.93307 19.2464C5.46788 18.9795 5.08681 18.5897 4.53111 18.0213C3.97251 17.4504 3.25734 16.7194 2.92829 16.2949C2.58308 15.8496 2.32802 15.3879 2.26707 14.8304C2.24431 14.6221 2.24431 14.4119 2.26707 14.2036C2.32802 13.646 2.58308 13.1843 2.92829 12.739C3.25733 12.3146 3.72134 11.8403 4.27991 11.2694L7.08579 8.40297C7.28759 8.19681 7.38849 8.09373 7.51466 8.09375C7.64083 8.09377 7.7417 8.19687 7.94344 8.40309L14.7385 15.3487ZM9.75 20.75C9.19772 20.75 8.75 21.1977 8.75 21.75C8.75 22.3023 9.19772 22.75 9.75 22.75L20.75 22.75C21.3023 22.75 21.75 22.3023 21.75 21.75C21.75 21.1977 21.3023 20.75 20.75 20.75L9.75 20.75Z" fill="#141B34"/>
</svg>
