<svg width="24" height="24" viewBox="0 0 24 24" fill="none" xmlns="http://www.w3.org/2000/svg">
<path fill-rule="evenodd" clip-rule="evenodd" d="M10.0378 5.02274C10.1949 4.86115 10.3971 4.60404 10.5893 4.35931L10.6341 4.30236L10.6341 4.30229C10.827 4.05658 11.0333 3.79384 11.2439 3.54522L11.25 3.53807V8C11.25 8.41421 11.5858 8.75 12 8.75C12.4142 8.75 12.75 8.41421 12.75 8V3.53807L12.7561 3.54522C12.9667 3.79386 13.173 4.05663 13.366 4.30235L13.4107 4.3593C13.6029 4.60404 13.8051 4.86115 13.9622 5.02274C14.2509 5.31977 14.7257 5.32651 15.0227 5.03781C15.3198 4.74911 15.3265 4.27428 15.0378 3.97726C14.9491 3.886 14.8035 3.70419 14.5903 3.43276L14.5433 3.37285L14.5432 3.37283C14.3532 3.13069 14.1302 2.84663 13.9005 2.57551C13.6543 2.28495 13.3787 1.98316 13.1032 1.74854C12.9652 1.63096 12.8096 1.51499 12.6422 1.42541C12.4807 1.33902 12.2583 1.25 12 1.25C11.7417 1.25 11.5193 1.33902 11.3578 1.42541C11.1904 1.51499 11.0348 1.63096 10.8968 1.74854C10.6213 1.98316 10.3457 2.28495 10.0995 2.57551C9.8698 2.84663 9.64682 3.13069 9.45675 3.37284L9.40971 3.43276C9.19651 3.70419 9.05089 3.886 8.96219 3.97726C8.67349 4.27428 8.68023 4.74911 8.97726 5.03781C9.27428 5.32651 9.74911 5.31977 10.0378 5.02274ZM6.74635 5.92617C6.78716 6.33837 6.48608 6.7056 6.07388 6.74641C4.84038 6.86851 4.17518 7.131 3.70359 7.60561C3.27953 8.03237 3.02529 8.61728 2.88984 9.63119C2.75157 10.6662 2.75 12.0303 2.75 13.949C2.75 15.8677 2.75157 17.2318 2.88984 18.2668C3.02529 19.2807 3.27953 19.8656 3.70359 20.2924C4.12699 20.7185 4.70626 20.9734 5.71148 21.1094C6.73876 21.2484 8.09305 21.2501 10 21.2501H14C15.907 21.2501 17.2612 21.2484 18.2885 21.1094C19.2937 20.9734 19.873 20.7185 20.2964 20.2924C20.7205 19.8656 20.9747 19.2807 21.1102 18.2668C21.2484 17.2318 21.25 15.8677 21.25 13.949C21.25 12.0303 21.2484 10.6662 21.1102 9.63119C20.9747 8.61728 20.7205 8.03237 20.2964 7.60561C19.8248 7.131 19.1596 6.86851 17.9261 6.74641C17.5139 6.7056 17.2128 6.33837 17.2536 5.92617C17.2945 5.51397 17.6617 5.2129 18.0739 5.2537C19.4406 5.389 20.5257 5.70823 21.3604 6.54833C22.108 7.30061 22.4395 8.25406 22.5969 9.43257C22.75 10.5784 22.75 12.0428 22.75 13.8928V13.8928V14.0051V14.0052C22.75 15.8552 22.75 17.3196 22.5969 18.4654C22.4395 19.6439 22.108 20.5974 21.3604 21.3496C20.6123 22.1026 19.6629 22.4371 18.4896 22.5959C17.3501 22.7501 15.8942 22.7501 14.0567 22.7501H9.9433C8.1058 22.7501 6.64988 22.7501 5.51035 22.5959C4.33706 22.4371 3.38773 22.1026 2.63956 21.3496C1.89204 20.5974 1.56049 19.6439 1.40305 18.4654C1.24997 17.3195 1.24998 15.8552 1.25 14.0051V14.0051V13.8929V13.8928C1.24998 12.0428 1.24997 10.5784 1.40305 9.43257C1.56049 8.25406 1.89204 7.30061 2.63956 6.54833C3.47433 5.70823 4.5594 5.389 5.92612 5.2537C6.33832 5.2129 6.70555 5.51397 6.74635 5.92617ZM19.5078 14C19.5078 13.4477 19.0601 13 18.5078 13H18.4988C17.9465 13 17.4988 13.4477 17.4988 14C17.4988 14.5523 17.9465 15 18.4988 15H18.5078C19.0601 15 19.5078 14.5523 19.5078 14ZM5.50781 13C6.0601 13 6.50781 13.4477 6.50781 14C6.50781 14.5523 6.0601 15 5.50781 15H5.49883C4.94655 15 4.49883 14.5523 4.49883 14C4.49883 13.4477 4.94655 13 5.49883 13H5.50781ZM12 12.25C11.0335 12.25 10.25 13.0335 10.25 14C10.25 14.9665 11.0335 15.75 12 15.75C12.9665 15.75 13.75 14.9665 13.75 14C13.75 13.0335 12.9665 12.25 12 12.25ZM8.75 14C8.75 12.2051 10.2051 10.75 12 10.75C13.7949 10.75 15.25 12.2051 15.25 14C15.25 15.7949 13.7949 17.25 12 17.25C10.2051 17.25 8.75 15.7949 8.75 14Z" fill="#141B34"/>
</svg>
